<svg width="15" height="24" viewBox="0 0 15 24" fill="none" xmlns="http://www.w3.org/2000/svg">
<path d="M0.78902 3.39549V1.13085C0.78902 0.934556 1.01461 0.826157 1.16695 0.946275L14.374 11.2617C14.4862 11.349 14.577 11.4607 14.6394 11.5884C14.7019 11.7161 14.7344 11.8564 14.7344 11.9985C14.7344 12.1407 14.7019 12.2809 14.6394 12.4086C14.577 12.5363 14.4862 12.6481 14.374 12.7353L1.16695 23.0508C1.01168 23.1709 0.78902 23.0625 0.78902 22.8662V20.6015C0.78902 20.458 0.856402 20.3203 0.96773 20.2324L11.5146 12L0.96773 3.76463C0.856402 3.67674 0.78902 3.53905 0.78902 3.39549V3.39549Z" fill="#FBFBFB"/>
</svg>
