<svg width="15" height="24" viewBox="0 0 15 24" fill="none" xmlns="http://www.w3.org/2000/svg">
<path d="M14.211 3.39549V1.13085C14.211 0.934556 13.9854 0.826157 13.833 0.946275L0.626019 11.2617C0.513807 11.349 0.423009 11.4607 0.360551 11.5884C0.298093 11.7161 0.265625 11.8564 0.265625 11.9985C0.265625 12.1407 0.298093 12.2809 0.360551 12.4086C0.423009 12.5363 0.513807 12.6481 0.626019 12.7353L13.833 23.0508C13.9883 23.1709 14.211 23.0625 14.211 22.8662V20.6015C14.211 20.458 14.1436 20.3203 14.0323 20.2324L3.48539 12L14.0323 3.76463C14.1436 3.67674 14.211 3.53905 14.211 3.39549Z" fill="#FBFBFB"/>
</svg>
