<svg width="50" height="50" viewBox="0 0 50 50" fill="none" xmlns="http://www.w3.org/2000/svg">
<g clip-path="url(#clip0_0_299)">
<path d="M0.295 27.5809C0.49823 29.1352 1.25991 30.5625 2.43796 31.5965C3.61602 32.6306 5.13 33.2008 6.6975 33.2008C8.265 33.2008 9.77898 32.6306 10.957 31.5965C12.1351 30.5625 12.8968 29.1352 13.1 27.5809H0.295ZM35.182 40.5799C35.1824 40.7113 35.1569 40.8415 35.1069 40.9631C35.057 41.0846 34.9836 41.1951 34.8909 41.2883C34.7982 41.3814 34.6881 41.4554 34.5668 41.506C34.4455 41.5565 34.3154 41.5827 34.184 41.5829H15.528C14.98 41.5829 14.528 41.1329 14.528 40.5799C14.5293 40.3158 14.6353 40.0629 14.8228 39.8768C15.0102 39.6906 15.2638 39.5864 15.528 39.5869H34.183C34.735 39.5869 35.182 40.0309 35.182 40.5799ZM14.637 42.0939H35.074V44.9809H14.637V42.0939ZM36.9 27.5809C37.1018 29.1362 37.8629 30.5649 39.0409 31.6002C40.219 32.6355 41.7337 33.2066 43.302 33.2069C44.8701 33.207 46.3846 32.6359 47.5623 31.6005C48.74 30.5651 49.5002 29.1362 49.701 27.5809H36.9ZM49.349 25.5719L44.106 18.3499H46.909C47.591 18.3499 48.14 17.7909 48.14 17.0999C48.14 16.4149 47.59 15.8619 46.909 15.8619H32.061C31.6202 14.6479 30.8675 13.5713 29.8784 12.7406C28.8894 11.9099 27.699 11.3544 26.427 11.1299V7.23294C26.427 6.53994 25.871 5.98694 25.182 5.98694L25.066 5.99994L24.95 5.98694C24.7864 5.98654 24.6243 6.01852 24.4732 6.08104C24.322 6.14355 24.1847 6.23536 24.0691 6.35118C23.9536 6.467 23.8621 6.60454 23.7999 6.75588C23.7378 6.90721 23.7062 7.06935 23.707 7.23294V11.1279C22.4352 11.3522 21.245 11.9077 20.2562 12.7384C19.2675 13.5692 18.5151 14.6458 18.075 15.8599H3.224C2.547 15.8599 1.995 16.4129 1.995 17.0979C1.995 17.7899 2.547 18.3479 3.224 18.3479H5.899L0.655 25.5699H0V26.9039H13.398V25.5699H12.74L7.498 18.3499H19.667C19.667 18.0679 19.698 17.7909 19.74 17.5259C19.783 17.4009 19.812 17.2739 19.812 17.1429C20.0374 16.1929 20.5201 15.3233 21.2072 14.6295C21.8943 13.9357 22.7592 13.4446 23.707 13.2099V26.9069H23.655C23.548 32.0589 21.097 36.5519 17.461 39.0769H32.675C29.038 36.5519 26.589 32.0589 26.476 26.9069H26.428V13.2099C27.3757 13.4446 28.2404 13.9358 28.9273 14.6296C29.6142 15.3234 30.0968 16.193 30.322 17.1429C30.326 17.2739 30.353 17.4009 30.397 17.5259C30.437 17.7919 30.462 18.0679 30.462 18.3499H42.504L37.26 25.5719H36.606V26.9059H50V25.5719H49.349ZM6.165 25.5719H1.98L6.165 19.8069V25.5719ZM7.236 25.5719V19.8069L11.421 25.5719H7.236ZM42.768 25.5719H38.581L42.768 19.8069V25.5719ZM43.834 25.5719V19.8069L48.024 25.5719H43.834ZM7.941 14.1239C7.93182 14.4474 7.79689 14.7545 7.56488 14.98C7.33287 15.2055 7.02206 15.3317 6.6985 15.3317C6.37494 15.3317 6.06413 15.2055 5.83212 14.98C5.60011 14.7545 5.46518 14.4474 5.456 14.1239C5.456 13.4379 6.014 12.8779 6.701 12.8779C7.385 12.8769 7.941 13.4379 7.941 14.1239ZM44.545 14.0579C44.545 14.7489 43.989 15.2969 43.303 15.2969C43.1399 15.298 42.9781 15.2667 42.8272 15.2048C42.6762 15.143 42.539 15.0518 42.4235 14.9366C42.308 14.8214 42.2165 14.6844 42.1542 14.5336C42.092 14.3827 42.0603 14.2211 42.061 14.0579C42.0543 13.8906 42.0814 13.7237 42.1408 13.5672C42.2002 13.4106 42.2906 13.2677 42.4066 13.147C42.5226 13.0262 42.6618 12.9302 42.8158 12.8645C42.9699 12.7989 43.1356 12.7651 43.303 12.7651C43.4704 12.7651 43.6361 12.7989 43.7902 12.8645C43.9442 12.9302 44.0834 13.0262 44.1994 13.147C44.3154 13.2677 44.4058 13.4106 44.4652 13.5672C44.5246 13.7237 44.5517 13.8906 44.545 14.0579Z" fill="#FBFBFB"/>
</g>
<defs>
<clipPath id="clip0_0_299">
<rect width="50" height="50" fill="white"/>
</clipPath>
</defs>
</svg>
