<svg width="40" height="40" viewBox="0 0 40 40" fill="none" xmlns="http://www.w3.org/2000/svg">
<g clip-path="url(#clip0_0_67)">
<path d="M0.236 22.0648C0.398584 23.3082 1.00793 24.45 1.95037 25.2772C2.89282 26.1045 4.104 26.5606 5.358 26.5606C6.612 26.5606 7.82318 26.1045 8.76563 25.2772C9.70807 24.45 10.3174 23.3082 10.48 22.0648H0.236ZM28.1456 32.464C28.1459 32.5691 28.1255 32.6732 28.0855 32.7705C28.0456 32.8677 27.9869 32.9561 27.9127 33.0306C27.8386 33.1052 27.7504 33.1643 27.6534 33.2048C27.5564 33.2452 27.4523 33.2661 27.3472 33.2664H12.4224C11.984 33.2664 11.6224 32.9064 11.6224 32.464C11.6235 32.2526 11.7083 32.0503 11.8582 31.9014C12.0082 31.7525 12.2111 31.6691 12.4224 31.6696H27.3464C27.788 31.6696 28.1456 32.0248 28.1456 32.464ZM11.7096 33.6752H28.0592V35.9848H11.7096V33.6752ZM29.52 22.0648C29.6815 23.309 30.2903 24.4519 31.2328 25.2802C32.1752 26.1084 33.3869 26.5653 34.6416 26.5656C35.8961 26.5656 37.1077 26.1087 38.0498 25.2804C38.992 24.452 39.6002 23.3089 39.7608 22.0648H29.52ZM39.4792 20.4576L35.2848 14.68H37.5272C38.0728 14.68 38.512 14.2328 38.512 13.68C38.512 13.132 38.072 12.6896 37.5272 12.6896H25.6488C25.2962 11.7183 24.694 10.857 23.9027 10.1925C23.1115 9.52791 22.1592 9.0835 21.1416 8.90395V5.78635C21.1416 5.23195 20.6968 4.78955 20.1456 4.78955L20.0528 4.79995L19.96 4.78955C19.8291 4.78924 19.6995 4.81482 19.5785 4.86483C19.4576 4.91484 19.3477 4.98829 19.2553 5.08095C19.1629 5.1736 19.0897 5.28363 19.04 5.4047C18.9902 5.52577 18.965 5.65548 18.9656 5.78635V8.90235C17.9482 9.08177 16.996 9.52616 16.205 10.1908C15.414 10.8554 14.8121 11.7167 14.46 12.688H2.5792C2.0376 12.688 1.596 13.1304 1.596 13.6784C1.596 14.232 2.0376 14.6784 2.5792 14.6784H4.7192L0.524 20.456H0V21.5232H10.7184V20.456H10.192L5.9984 14.68H15.7336C15.7336 14.4544 15.7584 14.2328 15.792 14.0208C15.8264 13.9208 15.8496 13.8192 15.8496 13.7144C16.0299 12.9543 16.4161 12.2586 16.9658 11.7036C17.5154 11.1486 18.2073 10.7557 18.9656 10.568V21.5256H18.924C18.8384 25.6472 16.8776 29.2416 13.9688 31.2616H26.14C23.2304 29.2416 21.2712 25.6472 21.1808 21.5256H21.1424V10.568C21.9005 10.7557 22.5923 11.1486 23.1419 11.7037C23.6914 12.2587 24.0774 12.9544 24.2576 13.7144C24.2608 13.8192 24.2824 13.9208 24.3176 14.0208C24.3496 14.2336 24.3696 14.4544 24.3696 14.68H34.0032L29.808 20.4576H29.2848V21.5248H40V20.4576H39.4792ZM4.932 20.4576H1.584L4.932 15.8456V20.4576ZM5.7888 20.4576V15.8456L9.1368 20.4576H5.7888ZM34.2144 20.4576H30.8648L34.2144 15.8456V20.4576ZM35.0672 20.4576V15.8456L38.4192 20.4576H35.0672ZM6.3528 11.2992C6.34546 11.5579 6.23751 11.8036 6.0519 11.984C5.86629 12.1644 5.61765 12.2654 5.3588 12.2654C5.09995 12.2654 4.85131 12.1644 4.6657 11.984C4.48009 11.8036 4.37214 11.5579 4.3648 11.2992C4.3648 10.7504 4.8112 10.3024 5.3608 10.3024C5.908 10.3016 6.3528 10.7504 6.3528 11.2992ZM35.636 11.2464C35.636 11.7992 35.1912 12.2376 34.6424 12.2376C34.5119 12.2384 34.3825 12.2134 34.2617 12.1639C34.1409 12.1144 34.0312 12.0415 33.9388 11.9493C33.8464 11.8571 33.7732 11.7475 33.7234 11.6269C33.6736 11.5062 33.6483 11.3769 33.6488 11.2464C33.6434 11.1125 33.6651 10.979 33.7127 10.8537C33.7602 10.7285 33.8325 10.6142 33.9253 10.5176C34.0181 10.421 34.1294 10.3441 34.2527 10.2916C34.3759 10.2391 34.5085 10.2121 34.6424 10.2121C34.7763 10.2121 34.9089 10.2391 35.0321 10.2916C35.1554 10.3441 35.2667 10.421 35.3595 10.5176C35.4523 10.6142 35.5246 10.7285 35.5721 10.8537C35.6197 10.979 35.6414 11.1125 35.636 11.2464Z" fill="#861C22"/>
</g>
<defs>
<clipPath id="clip0_0_67">
<rect width="40" height="40" fill="white"/>
</clipPath>
</defs>
</svg>
